<svg width="20" height="18" viewBox="0 0 20 18" fill="none" xmlns="http://www.w3.org/2000/svg">
<path d="M13.2969 4.07813C12.787 4.07818 12.2788 4.13736 11.7826 4.2545C11.635 4.03883 11.4704 3.8353 11.2904 3.64582L11.9114 2.75825C12.0612 2.54438 12.1199 2.27978 12.0746 2.02264C12.0293 1.7655 11.8837 1.53688 11.6698 1.38709C11.4559 1.2373 11.1913 1.1786 10.9342 1.22391C10.677 1.26922 10.4484 1.41481 10.2986 1.62868L9.67684 2.51954C9.1001 2.267 8.48017 2.12775 7.85083 2.10938L7.66215 1.04297C7.61227 0.790212 7.46529 0.567081 7.25275 0.421473C7.04021 0.275865 6.77905 0.219385 6.52533 0.264159C6.27162 0.308932 6.04557 0.451388 5.89571 0.660951C5.74584 0.870513 5.68411 1.13048 5.72375 1.38504L5.91243 2.45145C5.32747 2.68392 4.79253 3.02643 4.33661 3.46043L3.44575 2.83618C3.23189 2.68639 2.96728 2.62769 2.71014 2.67299C2.453 2.7183 2.22439 2.8639 2.07459 3.07776C1.9248 3.29162 1.86611 3.55623 1.91141 3.81337C1.95672 4.07051 2.10231 4.29912 2.31618 4.44891L3.20704 5.07153C2.95381 5.64776 2.81453 6.26756 2.79688 6.89672L1.73047 7.08539C1.48786 7.1279 1.26999 7.25981 1.11988 7.45509C0.969772 7.65038 0.898328 7.89484 0.919653 8.14023C0.940977 8.38561 1.05352 8.61409 1.23507 8.78055C1.41661 8.94701 1.65397 9.03936 1.90028 9.03938C1.95801 9.03928 2.01564 9.03434 2.07254 9.02461L3.13895 8.83594C3.21947 9.04033 3.31375 9.23903 3.42114 9.43067C2.79837 10.0804 2.38018 10.8988 2.21849 11.7841C2.05681 12.6695 2.15876 13.5828 2.51169 14.4108C2.86461 15.2387 3.45296 15.9447 4.20367 16.4411C4.95438 16.9375 5.83438 17.2025 6.73438 17.2031H13.2969C15.0374 17.2031 16.7066 16.5117 17.9373 15.281C19.168 14.0503 19.8594 12.3811 19.8594 10.6406C19.8594 8.90015 19.168 7.23095 17.9373 6.00024C16.7066 4.76953 15.0374 4.07813 13.2969 4.07813ZM7.71876 4.07813C8.12657 4.07846 8.5299 4.16325 8.90333 4.32716C9.27676 4.49107 9.61219 4.73055 9.88848 5.03051C8.72076 5.73874 7.8018 6.79214 7.25856 8.04516C7.08453 8.02542 6.90952 8.01556 6.73438 8.01563C6.16377 8.01557 5.59816 8.12212 5.06668 8.32981C4.84627 7.8796 4.74407 7.3807 4.76973 6.88008C4.79539 6.37947 4.94806 5.89363 5.21336 5.46832C5.47865 5.04301 5.84785 4.69223 6.28616 4.44902C6.72448 4.2058 7.21749 4.07817 7.71876 4.07813ZM13.2969 15.2344H6.73438C6.03819 15.2344 5.37051 14.9578 4.87822 14.4655C4.38594 13.9733 4.10938 13.3056 4.10938 12.6094C4.10938 11.9132 4.38594 11.2455 4.87822 10.7532C5.37051 10.2609 6.03819 9.98438 6.73438 9.98438H6.75735C6.74833 10.0746 6.74094 10.1648 6.73602 10.2551C6.72079 10.5162 6.8099 10.7726 6.98373 10.968C7.15757 11.1633 7.4019 11.2816 7.66297 11.2969C7.92405 11.3121 8.18048 11.223 8.37585 11.0492C8.57123 10.8753 8.68954 10.631 8.70477 10.3699C8.72213 10.0651 8.76995 9.76285 8.84751 9.46758L8.85981 9.42246C9.08598 8.59558 9.53877 7.84838 10.1671 7.26518C10.7954 6.68199 11.5742 6.28604 12.4156 6.12201C13.257 5.95797 14.1276 6.0324 14.9289 6.33688C15.7303 6.64136 16.4306 7.16377 16.9508 7.84516C17.471 8.52654 17.7903 9.33976 17.8729 10.193C17.9554 11.0463 17.7978 11.9057 17.4178 12.6741C17.0378 13.4425 16.4506 14.0895 15.7224 14.5419C14.9943 14.9943 14.1541 15.2341 13.2969 15.2344Z" fill="#005773" fill-opacity="0.56"/>
</svg>
