<svg width="23" height="20" viewBox="0 0 23 20" fill="none" xmlns="http://www.w3.org/2000/svg">
<path d="M20.5 11.4038C20.174 11.4034 19.8526 11.4809 19.5625 11.6297V11.2163C19.5625 7.39975 16.8147 5.57068 14.6059 4.10068C13.2409 3.19225 12.0625 2.40381 12.0625 1.46631C12.0625 1.31712 12.0032 1.17405 11.8977 1.06856C11.7923 0.963072 11.6492 0.903809 11.5 0.903809C11.3508 0.903809 11.2077 0.963072 11.1023 1.06856C10.9968 1.17405 10.9375 1.31712 10.9375 1.46631C10.9375 2.40381 9.75906 3.19225 8.39406 4.10068C6.18531 5.57068 3.4375 7.39975 3.4375 11.2163V11.6297C3.12311 11.4693 2.77282 11.3922 2.42013 11.4059C2.06744 11.4196 1.72416 11.5235 1.42313 11.7078C1.12211 11.8921 0.873409 12.1505 0.700837 12.4584C0.528266 12.7663 0.437595 13.1134 0.4375 13.4663V18.7163C0.4375 18.8655 0.496763 19.0086 0.602252 19.1141C0.707742 19.2195 0.850816 19.2788 1 19.2788H7C7.14918 19.2788 7.29226 19.2195 7.39775 19.1141C7.50324 19.0086 7.5625 18.8655 7.5625 18.7163V15.7163C7.5625 15.4677 7.66127 15.2292 7.83709 15.0534C8.0129 14.8776 8.25136 14.7788 8.5 14.7788C8.74864 14.7788 8.9871 14.8776 9.16291 15.0534C9.33873 15.2292 9.4375 15.4677 9.4375 15.7163V18.7163C9.4375 18.8655 9.49676 19.0086 9.60225 19.1141C9.70774 19.2195 9.85082 19.2788 10 19.2788H13C13.1492 19.2788 13.2923 19.2195 13.3977 19.1141C13.5032 19.0086 13.5625 18.8655 13.5625 18.7163V15.7163C13.5625 15.4677 13.6613 15.2292 13.8371 15.0534C14.0129 14.8776 14.2514 14.7788 14.5 14.7788C14.7486 14.7788 14.9871 14.8776 15.1629 15.0534C15.3387 15.2292 15.4375 15.4677 15.4375 15.7163V18.7163C15.4375 18.8655 15.4968 19.0086 15.6023 19.1141C15.7077 19.2195 15.8508 19.2788 16 19.2788H22C22.1492 19.2788 22.2923 19.2195 22.3977 19.1141C22.5032 19.0086 22.5625 18.8655 22.5625 18.7163V13.4663C22.5625 12.9193 22.3452 12.3947 21.9584 12.0079C21.5716 11.6211 21.047 11.4038 20.5 11.4038ZM9.0175 5.03725C9.98969 4.39037 10.9281 3.766 11.5 3.01506C12.0719 3.76506 13.0103 4.39037 13.9825 5.03725C15.9447 6.34131 18.1562 7.81412 18.4122 10.6538H4.58781C4.84375 7.81412 7.05531 6.34131 9.0175 5.03725ZM1.5625 13.4663C1.5625 13.2177 1.66127 12.9792 1.83709 12.8034C2.0129 12.6276 2.25136 12.5288 2.5 12.5288C2.74864 12.5288 2.9871 12.6276 3.16291 12.8034C3.33873 12.9792 3.4375 13.2177 3.4375 13.4663V18.1538H1.5625V13.4663ZM14.5 13.6538C13.953 13.6538 13.4284 13.8711 13.0416 14.2579C12.6548 14.6447 12.4375 15.1693 12.4375 15.7163V18.1538H10.5625V15.7163C10.5625 15.1693 10.3452 14.6447 9.95841 14.2579C9.57161 13.8711 9.04701 13.6538 8.5 13.6538C7.95299 13.6538 7.42839 13.8711 7.04159 14.2579C6.6548 14.6447 6.4375 15.1693 6.4375 15.7163V18.1538H4.5625V11.7788H18.4375V18.1538H16.5625V15.7163C16.5625 15.1693 16.3452 14.6447 15.9584 14.2579C15.5716 13.8711 15.047 13.6538 14.5 13.6538ZM21.4375 18.1538H19.5625V13.4663C19.5625 13.2177 19.6613 12.9792 19.8371 12.8034C20.0129 12.6276 20.2514 12.5288 20.5 12.5288C20.7486 12.5288 20.9871 12.6276 21.1629 12.8034C21.3387 12.9792 21.4375 13.2177 21.4375 13.4663V18.1538Z" fill="#275695"/>
</svg>
